<svg xmlns="http://www.w3.org/2000/svg" fill="#E61577" viewBox="0 0 2558.61 785.85">
  <path d="M348.77 283.06c-39.33-29.94-89.1-45.61-149.53-40.32C70.06 254.04-10.06 358.67 1.02 485.36c11.22 128.35 105.82 217.69 245.76 205.45 53.82-4.71 95.64-22.55 129.07-50.51 35-28.93 56.67-67.54 62.45-106.42L306.64 545.4c-9.27 27.51-31.08 45.27-66.68 48.39-55.49 4.85-90.06-28-103.34-84.42l304.71-26.66c-6.7-86.19-38-157.7-92.56-199.65zM130.42 428.99c4.69-51.31 28.36-85.93 79.7-90.42 43.89-3.84 78.17 25.71 87.56 75.78zM868.74680658 27.31447398l136.62810285-11.95341012 52.77105912 603.1759658-136.62810285 11.95341012zM749.99 472.4c-1.6 48.53-25.09 75.62-67.32 79.31-58 5.07-91.14-40.42-97.73-115.77-6.74-77 18-127.57 76-132.64 38.09-3.33 63.45 19.48 75.06 56.85l130-11.37c-20.76-94.14-100.32-154.76-215.41-144.69-134.14 11.73-213.43 116.29-202.28 243.81s108.23 216.62 244.85 204.69c120.07-10.5 191.24-93.49 186-191.49zm309.67683015-303.63707994l134.9644577-11.80786003 39.0405434 446.23545306-134.9644577 11.80786003zm-13.7349772-156.95386926L1180.89631065.00119076l9.56185653 109.29252032-134.9644577 11.80786003zM1494.24 129.44c-58 5.07-97.12 34.36-122.77 75l-2.48.21-5.47-62.48-129.13 11.35 39 446.11 135-11.81-4.81-54.91 1.66-.14c29.61 33.29 70.41 51.41 125.06 46.63 111-9.71 177-103.93 165-241.38-11.21-127.57-88.42-218.43-201.06-208.58zm-7.88 348.62c-58 5.07-95.21-39.23-101.22-108s19.22-123.5 78-128.64c58-5.07 89.5 40.56 95.87 113.43 6.35 72.08-21.28 118.72-72.61 123.21zm452.45-217.31c-54.69-5.22-103.07-5.16-105.68-35-2.32-26.49 22.26-41.16 55.38-44.06 37.26-3.26 64 6.09 72.24 43.74l124.21-10.86c-13.94-83.05-83.1-129.54-203.15-119.05-100.2 8.76-179 62.37-171.12 151.8 8.69 99.36 89.1 112.36 163.88 118.32 57.17 5 108.87 4.66 112.2 42.75 2.4 27.33-22 44.48-62.54 48-44.72 3.91-74.68-14.33-83.34-56.12l-127.52 11.25c12.32 93.2 95.16 143.53 219.36 132.66 111-9.71 188.73-64.91 180.62-157.64-9.49-108.51-98.93-119.88-174.54-125.79zm418.43 147.77c-55.48 4.85-90.06-28-103.34-84.42l304.72-26.58c-6.71-86.19-38-157.71-92.57-199.66-39.33-29.94-89.1-45.6-149.54-40.32-129.17 11.26-209.27 115.89-198.21 242.58 11.23 128.35 105.82 217.7 245.76 205.45 53.82-4.71 95.64-22.55 129.07-50.51 35-28.93 56.67-67.54 62.45-106.42l-131.66 11.52c-9.27 27.51-31.08 45.27-66.68 48.36zM2327.4 153.3c43.89-3.83 78.18 25.71 87.56 75.79l-167.26 14.63c4.69-51.28 28.36-85.89 79.7-90.39zM1286.05980788 743.49098868l134.93457185-11.80524536 3.7076053 42.37812246-134.93457186 11.80524535zm-5.42909417-62.08054923l134.93457186-11.80524536 3.7076053 42.37812246L1284.338319 723.7885619zm-5.42909416-62.07054923l134.93457186-11.80524535 3.7076053 42.37812245-134.93457186 11.80524536z"/>
</svg>
